<?xml version="1.0" encoding="UTF-8"?>
<svg width="72px" height="55px" viewBox="0 0 72 55" version="1.1" xmlns="http://www.w3.org/2000/svg" xmlns:xlink="http://www.w3.org/1999/xlink">
    <!-- Generator: Sketch 60 (88103) - https://sketch.com -->
    <title>Atom/Graphics/CLGXLogo</title>
    <desc>Created with Sketch.</desc>
    <g id="Symbols" stroke="none" stroke-width="1" fill="none" fill-rule="evenodd">
        <g id="Footer" transform="translate(-15.000000, -31.000000)">
            <rect id="Rectangle" x="0" y="0" width="1024" height="116"></rect>
            <g id="Atom/Graphics/CLGXLogo" transform="translate(15.000000, 31.000000)">
                <g id="logo-2">
                    <g id="Layer_3" transform="translate(17.632653, 0.000000)" fill="#898383" fill-rule="nonzero">
                        <polygon id="Shape" points="33.6489796 9.69795918 17.0155102 0 0.0881632653 9.69795918 0.0881632653 28.8587755 17.0155102 38.2922449 33.6489796 28.8587755 17.0155102 19.1314286"></polygon>
                    </g>
                    <g id="Layer_2_1_" fill-rule="nonzero">
                        <g id="Layer_2-2">
                            <g id="Layer_1-2">
                                <polygon id="Shape" fill="#898383" points="34.7069388 19.1314286 17.7795918 9.69795918 17.7795918 28.8587755"></polygon>
                                <polygon id="Shape" fill="#5C514F" points="34.7069388 38.2922449 17.7795918 28.8587755 34.7069388 19.1314286"></polygon>
                                <polygon id="Shape" fill="#888483" points="51.3404082 28.8587755 34.7069388 19.1314286 34.7069388 38.2922449"></polygon>
                                <polygon id="Shape" fill="#F04630" points="17.7795918 9.69795918 34.7069388 0 51.3404082 9.69795918 34.7069388 19.1314286"></polygon>
                                <path d="M55.2195918,50.8114286 C53.162449,52.2514286 51.4579592,52.2220408 50.2236735,50.8114286 C49.1363265,49.4889796 49.1363265,47.5787755 50.2236735,46.2563265 C51.4873469,44.8457143 53.2212245,44.8163265 55.1608163,46.197551 L55.2783673,45.3453061 L56.7183673,45.3453061 C56.7771429,45.4922449 56.8065306,45.6685714 56.8065306,45.8155102 C56.8065306,47.637551 56.8359184,49.4595918 56.8065306,51.2816327 C56.7477551,53.4269388 55.6016327,54.5730612 53.4563265,54.6906122 C51.9281633,54.7787755 50.9583673,54.5436735 49.8122449,53.8383673 L50.3412245,52.7510204 C51.7518367,53.3387755 53.162449,53.9265306 54.5730612,52.8979592 C55.2489796,52.3983673 55.3371429,51.6342857 55.2195918,50.8114286 Z M53.1036735,50.6057143 C54.2497959,50.6644898 55.1902041,49.7828571 55.2489796,48.6367347 C55.2489796,48.6073469 55.2489796,48.6073469 55.2489796,48.5779592 C55.2489796,47.4318367 54.3085714,46.5502041 53.0742857,46.5502041 C51.957551,46.5502041 51.0465306,47.4612245 51.0465306,48.5779592 C51.0759184,49.6946939 51.9869388,50.6057143 53.1036735,50.6057143 L53.1036735,50.6057143 L53.1036735,50.6057143 Z" id="Shape" fill="#888483"></path>
                                <path d="M8.02285714,49.9591837 L9.02204082,50.9583673 C7.67020408,52.9567347 4.32,53.3681633 2.23346939,51.7812245 C0.0293877551,50.0473469 -0.382040816,46.8440816 1.38122449,44.64 C1.38122449,44.64 1.38122449,44.64 1.38122449,44.64 L1.46938776,44.522449 C3.32081633,42.3477551 6.75918367,42.2302041 8.99265306,44.3461224 L7.96408163,45.5216327 C5.73061224,44.0522449 4.08489796,44.0522449 2.88,45.4922449 C1.76326531,46.9028571 1.85142857,48.8718367 3.02693878,50.2236735 C4.29061224,51.5167347 5.99510204,51.4579592 8.02285714,49.9591837 Z" id="Shape" fill="#F04630"></path>
                                <path d="M17.7208163,48.9893878 C17.6620408,51.1053061 15.8987755,52.8097959 13.7534694,52.7510204 C11.6081633,52.6922449 9.93306122,50.9289796 9.99183673,48.7836735 C10.0506122,46.6383673 11.8138776,44.9632653 13.9591837,45.0220408 C16.0163265,45.0808163 17.6620408,46.7265306 17.7208163,48.7836735 C17.7208163,48.842449 17.7208163,48.9306122 17.7208163,48.9893878 Z M11.6963265,48.96 C11.637551,50.1942857 12.5779592,51.2228571 13.8122449,51.2816327 L13.8710204,51.2816327 C15.0759184,51.2816327 16.0457143,50.3118367 16.075102,49.1069388 C16.075102,49.077551 16.075102,49.0187755 16.075102,48.9893878 C16.1044898,47.755102 15.1640816,46.7265306 13.9297959,46.6677551 L13.9004082,46.6677551 C12.6367347,46.6383673 11.7257143,47.6081633 11.6963265,48.96 L11.6963265,48.96 Z" id="Shape" fill="#F04630"></path>
                                <path d="M31.5036735,49.5183673 L26.3608163,49.5183673 C26.3020408,50.3412245 26.7428571,50.8114286 27.36,51.1053061 C28.4473469,51.6342857 29.3877551,51.2816327 30.2987755,50.517551 L31.1804082,51.2816327 C30.004898,53.162449 26.9485714,53.2212245 25.4204082,51.3991837 C24.3918367,50.1942857 24.3036735,48.1665306 25.2146939,46.7559184 C26.037551,45.4334694 27.6538776,44.8457143 29.1526531,45.2865306 C30.7983673,45.7567347 31.7681633,47.4318367 31.5036735,49.5183673 Z M29.8285714,48.4604082 C29.6816327,47.2261224 29.035102,46.5795918 28.0065306,46.6089796 C27.0367347,46.6383673 26.3902041,47.3436735 26.3314286,48.4604082 L29.8285714,48.4604082 Z" id="Shape" fill="#F04630"></path>
                                <path d="M48.3134694,48.96 C48.3134694,51.0759184 46.6089796,52.7804082 44.4930612,52.7804082 C42.3771429,52.7804082 40.6726531,51.0759184 40.6726531,48.96 C40.6726531,46.8440816 42.3771429,45.1395918 44.4636735,45.1395918 L44.522449,45.1395918 C46.6089796,45.1395918 48.2840816,46.7853061 48.3134694,48.8718367 C48.3134694,48.8718367 48.3134694,48.8718367 48.3134694,48.8718367 L48.3134694,48.96 Z M42.3183673,48.9893878 C42.2889796,50.2236735 43.2587755,51.2522449 44.4930612,51.3110204 L44.522449,51.3110204 C45.7567347,51.3110204 46.7559184,50.3118367 46.7559184,49.077551 L46.7559184,49.077551 L46.7559184,49.0187755 C46.8146939,47.755102 45.8155102,46.6677551 44.522449,46.6089796 C43.2587755,46.5795918 42.3183673,47.6081633 42.3183673,48.9893878 L42.3183673,48.9893878 Z" id="Shape" fill="#888483"></path>
                                <polygon id="Shape" fill="#888483" points="33.5020408 43.0530612 35.0595918 43.0530612 35.0595918 51.0465306 39.9379592 51.0465306 39.9379592 52.4277551 33.5020408 52.4277551"></polygon>
                                <path d="M67.9738776,50.4881633 L68.7967347,51.3991837 C67.562449,52.9861224 65.1232653,53.1918367 63.5657143,51.8106122 C62.0081633,50.4587755 61.8612245,48.0783673 63.2130612,46.5208163 C64.564898,44.9632653 66.9453061,44.8163265 68.5028571,46.1681633 C68.6204082,46.2563265 68.7379592,46.3738776 68.8261224,46.4914286 L67.915102,47.4612245 C66.3281633,46.4326531 65.2995918,46.4032653 64.4767347,47.3730612 C63.7126531,48.3428571 63.7420408,49.7240816 64.5355102,50.635102 C65.3877551,51.5461224 66.5044898,51.5167347 67.9738776,50.4881633 Z" id="Shape" fill="#888483"></path>
                                <path d="M20.9534694,45.3453061 L20.9534694,46.6677551 C21.6293878,45.6979592 22.2759184,45.0808163 23.3926531,45.1395918 L23.3926531,46.7853061 C21.364898,47.402449 20.9828571,47.9608163 20.9534694,50.1355102 L20.9534694,52.4571429 L19.3959184,52.4571429 L19.3959184,45.3159184 L20.9534694,45.3159184 L20.9534694,45.3453061 Z" id="Shape" fill="#F04630"></path>
                                <polygon id="Shape" fill="#888483" points="59.0693878 45.3453061 60.4506122 45.3453061 60.4506122 52.4865306 59.0693878 52.4865306"></polygon>
                                <polygon id="Shape" fill="#888483" points="60.48 42.7297959 60.48 44.1110204 58.922449 44.1110204 58.922449 42.7297959"></polygon>
                            </g>
                        </g>
                        <path d="M69.7077551,45.2277551 L69.7077551,45.2277551 C69.7077551,44.64 70.1779592,44.1697959 70.7657143,44.1697959 C71.3534694,44.1697959 71.8236735,44.64 71.8236735,45.2277551 C71.8236735,45.2277551 71.8236735,45.2277551 71.8236735,45.2277551 L71.8236735,45.2277551 C71.8236735,45.8155102 71.3534694,46.2857143 70.7657143,46.2857143 C70.1779592,46.2857143 69.7077551,45.8155102 69.7077551,45.2277551 C69.7077551,45.2277551 69.7077551,45.2277551 69.7077551,45.2277551 Z M71.7061224,45.2277551 L71.7061224,45.2277551 C71.7061224,44.7281633 71.2946939,44.2873469 70.795102,44.2873469 C70.795102,44.2873469 70.7657143,44.2873469 70.7657143,44.2873469 C70.2367347,44.2873469 69.8253061,44.6987755 69.8253061,45.2277551 C69.8253061,45.2277551 69.8253061,45.2277551 69.8253061,45.2277551 L69.8253061,45.2277551 C69.7959184,45.7567347 70.1779592,46.197551 70.7069388,46.2269388 C71.2359184,46.2563265 71.6767347,45.8742857 71.7061224,45.3453061 C71.7061224,45.2865306 71.7061224,45.2571429 71.7061224,45.2277551 L71.7061224,45.2277551 Z M70.3542857,44.6693878 L70.8244898,44.6693878 C71.0595918,44.6693878 71.2359184,44.7869388 71.2359184,45.0220408 C71.2359184,45.1689796 71.1477551,45.3159184 70.9714286,45.3453061 L71.2653061,45.7567347 L71.0008163,45.7567347 L70.7363265,45.3746939 L70.5012245,45.3746939 L70.5012245,45.7567347 L70.2955102,45.7567347 L70.3542857,44.6693878 Z M70.8244898,45.1983673 C70.9714286,45.1983673 71.0302041,45.1102041 71.0302041,45.0220408 C71.0302041,44.9338776 70.9420408,44.8457143 70.8244898,44.8457143 L70.56,44.8457143 L70.56,45.1983673 L70.8244898,45.1983673 Z" id="Shape" fill="#888483"></path>
                    </g>
                </g>
            </g>
        </g>
    </g>
</svg>