<?xml version="1.0" encoding="utf-8"?>
<!-- Generator: Adobe Illustrator 24.0.0, SVG Export Plug-In . SVG Version: 6.00 Build 0)  -->
<svg version="1.1" id="Layer_1" xmlns="http://www.w3.org/2000/svg" xmlns:xlink="http://www.w3.org/1999/xlink" x="0px" y="0px"
	 viewBox="0 0 1904 444" style="enable-background:new 0 0 1904 444; fill:#ffffff" xml:space="preserve">
<g>
	<path d="M1904,133c-2.46,0-4.92,0-8.01,0c0-15.8,0-31.17,0-46.54c-0.48-0.11-0.96-0.22-1.44-0.33c-1.48,3.89-2.99,7.76-4.43,11.66
		c-3.69,9.98-7.48,19.93-10.94,29.99c-1.49,4.32-3.73,6.47-8.94,4.77c-5.84-15.34-11.85-31.1-17.86-46.87
		c-0.31,0.02-0.61,0.05-0.92,0.07c0,15.57,0,31.14,0,46.97c-2.73,0-4.78,0-7.15,0c0-19.86,0-39.43,0-59.76
		c2.88,0,5.72-0.38,8.36,0.16c1.3,0.27,2.74,2.06,3.28,3.48c5.56,14.61,10.94,29.28,16.4,43.93c0.21,0.57,0.68,1.04,1.49,2.24
		c4.93-13.17,9.78-25.71,14.3-38.37c4.11-11.51,3.96-11.57,15.84-11.43C1904,93,1904,113,1904,133z"/>
	<path d="M1787.49,80.27c0-2.41,0-4.01,0-5.94c15.89,0,31.6,0,47.59,0c0,1.85,0,3.57,0,5.8c-6.49,0-12.74,0-19.51,0
		c0,17.74,0,34.97,0,52.55c-2.78,0-5.02,0-8,0c0-17.27,0-34.61,0-52.41C1800.59,80.27,1794.33,80.27,1787.49,80.27z"/>
	<path d="M1434.12,121.5c3.12,0,5.07,0,7.01,0c18.5,0,37-0.11,55.49,0.14c2.21,0.03,5.23,1.45,6.46,3.21
		c17.05,24.43,33.85,49.03,50.72,73.58c6.5,9.46,13,18.93,19.55,28.36c1.01,1.45,2.31,2.71,3.8,4.44
		c8.04-11.11,15.77-21.69,23.4-32.34c17.94-25.02,35.82-50.1,53.82-75.07c0.82-1.13,2.62-2.2,3.97-2.21
		c19.16-0.13,38.33-0.08,57.49-0.04c0.6,0,1.19,0.37,2.13,0.67c-5.13,7.1-9.98,14.03-15.06,20.79c-16.9,22.49-33.9,44.9-50.83,67.37
		c-13.52,17.94-27.04,35.88-40.39,53.94c-0.83,1.12-0.82,3.89-0.01,5.03c17.89,25.06,36,49.96,53.96,74.96
		c16.51,22.98,32.9,46.05,49.37,69.06c5.42,7.57,10.91,15.08,16.81,23.22c-1.78,0.23-2.97,0.52-4.16,0.52
		c-19.5,0.03-39-0.07-58.49,0.11c-3.32,0.03-5.25-1.25-6.94-3.76c-14.76-21.97-29.53-43.92-44.33-65.86
		c-13.48-19.98-26.99-39.94-40.93-60.56c-3.11,4.41-6,8.39-8.76,12.45c-17.73,26.18-35.44,52.38-53.13,78.59
		c-8.01,11.87-15.89,23.82-23.97,35.63c-1,1.46-2.9,3.24-4.41,3.26c-20.15,0.22-40.29,0.14-61.43,0.14
		c4.39-6.12,8.28-11.59,12.2-17.03c16.44-22.83,32.93-45.61,49.3-68.48c14.82-20.71,29.5-41.53,44.27-62.28
		c3.57-5.01,7.2-9.99,10.97-14.85c1.77-2.28,2.04-3.98,0.13-6.53c-20.16-26.9-40.22-53.88-60.21-80.9
		c-15.15-20.47-30.16-41.05-45.23-61.58C1436.05,124.58,1435.47,123.59,1434.12,121.5z"/>
	<path d="M1312.07,121.3c17.5,0,34.42,0,51.68,0c0,105.28,0,210.27,0,315.56c-17.23,0-34.29,0-51.68,0
		C1312.07,331.71,1312.07,226.72,1312.07,121.3z"/>
	<path d="M1363.78,64.26c-17.34,0-34.27,0-51.62,0c0-21,0-41.84,0-62.96c17.18,0,34.24,0,51.62,0
		C1363.78,22.23,1363.78,42.97,1363.78,64.26z"/>
	<path d="M1140.91,436.97c-17.7,0-34.66,0-52.22,0c-0.1-1.86-0.29-3.6-0.29-5.35c-0.01-101.49,0.01-202.98-0.1-304.47
		c0-4.37,0.86-6.15,5.7-6.02c12.82,0.34,25.66,0.11,38.49,0.13c1.62,0,3.24,0.18,5.39,0.31c0,22.08,0,43.77,0,65.46
		c16.86-30.32,37.44-56.23,71.66-67.53c14.8-4.89,30.18-6.19,46.01-5.46c0,18.36,0,36.29,0,54.71c-6.36,0.42-12.77,0.78-19.16,1.28
		c-16.64,1.3-32.37,5.63-47.02,13.85c-19.78,11.1-32.06,28.13-39.21,49.18c-6.65,19.57-9.34,39.79-9.29,60.45
		c0.11,45.66,0.03,91.32,0.03,136.99C1140.91,432.47,1140.91,434.44,1140.91,436.97z"/>
	<path d="M1018.12,391.97c0,15.16,0,29.77,0,44.37c-0.27,0.23-0.53,0.63-0.78,0.62c-22.96-0.53-46-0.08-68.85-1.92
		c-29.31-2.35-41.75-19.69-44.42-47.36c-0.83-8.6-1.04-17.29-1.05-25.94c-0.08-62.66-0.05-125.32-0.05-187.98c0-1.99,0-3.98,0-6.55
		c-17.91,0-35.63,0-53.67,0c0-15.33,0-30.08,0-45.49c17.63,0,35.34,0,53.5,0c0-31.92,0-63.19,0-94.83c17.66,0,34.87,0,52.68,0
		c0,31.54,0,62.79,0,94.63c21.19,0,41.78,0,62.63,0c0,15.36,0,30.12,0,45.34c-20.81,0-41.41,0-62.67,0c0,2.24,0,4.03,0,5.82
		c0,63.33-0.01,126.66,0.02,189.98c0,2.99,0.21,5.99,0.43,8.98c0.92,12.46,6.59,18.52,19.17,19.28c12.46,0.75,24.96,0.75,37.45,1.07
		C1014.29,392.01,1016.08,391.97,1018.12,391.97z"/>
	<path d="M613,444c-8.8-1.66-17.67-3.01-26.38-5.03c-19.3-4.49-36.15-13.18-48.74-29.12c-7.96-10.08-12.65-21.53-14.68-34.01
		c-2.84-17.45-2.7-34.95,2.44-51.98c7.15-23.69,23.54-39.2,45.45-49.55c19.22-9.08,39.94-12.55,60.56-16.25
		c21.95-3.94,44.04-7.13,66-11.01c5.84-1.03,11.6-3.03,17.13-5.23c15.65-6.24,23.03-19.57,20.51-36.32
		c-3.77-25.1-15.25-37.42-40.62-42.73c-23.22-4.85-46.36-4.12-69.16,2.67c-25.19,7.51-36.17,23.13-39.29,49.04
		c-0.2,1.62-0.31,3.25-0.48,5.15c-17.5,0-34.74,0-51.98,0c0.49-39.69,20.13-74.59,58.25-91.54c30.43-13.53,62.46-15.31,94.99-13.56
		c17.16,0.92,34.16,2.87,50.33,9.45c22.84,9.3,39.84,24.24,46.2,48.76c2.36,9.09,3.48,18.74,3.54,28.15
		c0.32,55.16,0.11,110.33,0.22,165.5c0.01,6.48,0.47,13,1.36,19.42c1.21,8.74,5.37,12.21,14.23,12.02
		c5.27-0.11,10.52-1.08,16.39-1.73c0.12,1.36,0.37,2.92,0.37,4.49c0.04,10.17-0.15,20.34,0.11,30.5c0.1,3.81-1.22,6-4.75,7.01
		c-6.99,1.99-13.99,3.95-20.98,5.92c-6.67,0-13.33,0-20,0c-1.24-0.38-2.47-0.79-3.73-1.12c-15.61-4.11-27.19-12.43-30.36-29.35
		c-0.99-5.31-1.59-10.7-2.44-16.57c-1.26,1.12-2.31,1.87-3.14,2.82c-18.69,21.35-42.3,34.06-69.89,39.72
		c-8.12,1.67-16.3,3.01-24.45,4.5C631,444,622,444,613,444z M734.18,276.02c-6.36,2.42-12.48,5.76-19,7.02
		c-19.26,3.72-38.66,6.77-58.05,9.8c-16.27,2.54-32.78,4.1-48.01,10.91c-17.62,7.87-29.69,20.09-31.89,40.52
		c-2.71,25.21,9.56,44.69,34.25,50.35c29.98,6.86,59.29,4.46,86.54-11.03c18.83-10.71,32.93-26.25,35.51-48.05
		c2.31-19.53,0.76-39.51,0.9-59.3C734.43,276.14,734.2,276.03,734.18,276.02z"/>
	<path d="M437,0c0.04,2,0.13,4,0.13,5.99c0.01,141.48,0.01,282.96,0.01,424.43c0,1.98,0,3.96,0,6.34c-18.36,0-36.42,0-55,0
		c0-120.62,0-241.33,0-362.03c-0.4-0.13-0.79-0.27-1.19-0.4c-0.64,1.34-1.38,2.63-1.9,4.01c-11.97,31.75-23.91,63.52-35.87,95.28
		c-12.66,33.63-25.33,67.25-37.98,100.88c-12.07,32.07-24.1,64.16-36.18,96.23c-7.8,20.7-15.75,41.35-23.43,62.09
		c-1.24,3.35-2.85,4.49-6.43,4.43c-13.66-0.22-27.33-0.2-40.99-0.01c-3.38,0.05-4.92-0.98-6.1-4.2
		c-9.07-24.84-18.32-49.63-27.6-74.4c-11.9-31.78-23.87-63.53-35.82-95.3c-12.06-32.07-24.13-64.14-36.19-96.21
		c-11.01-29.27-22.02-58.54-33.03-87.8c-0.58-1.53-1.24-3.03-2.92-4.44c0,120.54,0,241.07,0,361.94c-18.87,0-36.94,0-55.51,0
		c-0.09-1.89-0.24-3.65-0.24-5.42c-0.01-142.14-0.01-284.29,0-426.43C0.76,3.32,0.92,1.66,1,0c26.67,0,53.33,0,80,0
		c9.88,26.3,19.76,52.6,29.62,78.91c16.75,44.69,33.5,89.39,50.21,134.1c17.07,45.65,34.09,91.31,51.18,136.95
		c1.95,5.2,4.23,10.28,6.87,16.68c3.23-8.85,5.92-16.47,8.77-24.03c16.64-44.03,33.31-88.04,49.97-132.05
		c16.25-42.93,32.52-85.85,48.72-128.8C336.62,54.52,346.79,27.25,357,0C383.67,0,410.33,0,437,0z"/>
</g>
</svg>
